<svg width="7" height="8" viewBox="0 0 7 8" fill="none" xmlns="http://www.w3.org/2000/svg">
<path d="M0.461538 6.48318C0.461538 6.85344 0.771635 7.15385 1.15385 7.15385H5.30769C5.6899 7.15385 6 6.85344 6 6.48318V1.7885H0.461538V6.48318ZM4.38462 2.90628C4.38462 2.78193 4.48702 2.68273 4.61538 2.68273C4.74375 2.68273 4.84615 2.78228 4.84615 2.90628V6.03607C4.84615 6.16007 4.74339 6.25962 4.61538 6.25962C4.48738 6.25962 4.38462 6.16007 4.38462 6.03607V2.90628ZM3 2.90628C3 2.78193 3.1024 2.68273 3.23077 2.68273C3.35913 2.68273 3.46154 2.78228 3.46154 2.90628V6.03607C3.46154 6.16007 3.35877 6.25962 3.23077 6.25962C3.10276 6.25962 3 6.16007 3 6.03607V2.90628ZM1.61538 2.90628C1.61538 2.78193 1.71779 2.68273 1.84615 2.68273C1.97452 2.68273 2.07692 2.78228 2.07692 2.90628V6.03607C2.07692 6.16042 1.97452 6.25962 1.84615 6.25962C1.71779 6.25962 1.61538 6.16007 1.61538 6.03607V2.90628ZM6.23077 0.447168H4.61538L4.44837 0.123571C4.40929 0.047841 4.32937 0 4.24197 0H2.21971C2.13229 0 2.0524 0.047841 2.01332 0.123571L1.84615 0.447168H0.230769C0.103327 0.447168 0 0.547237 0 0.670724V1.11784C0 1.24129 0.103327 1.34139 0.230769 1.34139H6.23077C6.35824 1.34139 6.46154 1.24129 6.46154 1.11784V0.670724C6.46154 0.547209 6.35769 0.447168 6.23077 0.447168Z" fill="#426EFF"/>
</svg>
